<svg xmlns="http://www.w3.org/2000/svg" xmlns:xlink="http://www.w3.org/1999/xlink" width="1200" zoomAndPan="magnify" viewBox="0 0 900 449.999984" height="600" preserveAspectRatio="xMidYMid meet" version="1.0"><defs><g/><clipPath id="a197aa277e"><rect x="0" width="214" y="0" height="366"/></clipPath><clipPath id="df0cc57934"><rect x="0" width="144" y="0" height="326"/></clipPath><clipPath id="575a69af50"><rect x="0" width="590" y="0" height="109"/></clipPath></defs><g transform="matrix(1, 0, 0, 1, 32, 52)"><g clip-path="url(#a197aa277e)"><g fill="#ffffff" fill-opacity="1"><g transform="translate(0.86494, 291.752412)"><g><path d="M 21.9375 0 L 21.9375 -28.875 L 59.96875 -28.875 L 59.96875 -42.484375 C 44.050781 -48.398438 32.25 -57.742188 24.5625 -70.515625 C 16.882812 -83.296875 13.046875 -99.21875 13.046875 -118.28125 C 13.046875 -147.15625 20.492188 -169.691406 35.390625 -185.890625 C 50.296875 -202.085938 73.851562 -210.1875 106.0625 -210.1875 C 138.457031 -210.1875 162.054688 -202.085938 176.859375 -185.890625 C 191.671875 -169.691406 199.265625 -147.15625 199.640625 -118.28125 C 199.640625 -99.21875 195.796875 -83.296875 188.109375 -70.515625 C 180.429688 -57.742188 168.539062 -48.398438 152.4375 -42.484375 L 152.4375 -28.875 L 190.46875 -28.875 L 190.46875 0 L 118 0 L 118 -59.703125 C 134.476562 -61.734375 145.910156 -67.609375 152.296875 -77.328125 C 158.679688 -87.046875 161.875 -100.140625 161.875 -116.609375 C 161.875 -138.085938 157.429688 -154.101562 148.546875 -164.65625 C 139.660156 -175.207031 125.5 -180.484375 106.0625 -180.484375 C 86.8125 -180.484375 72.789062 -175.160156 64 -164.515625 C 55.207031 -153.867188 50.8125 -137.898438 50.8125 -116.609375 C 50.8125 -100.140625 54.050781 -87 60.53125 -77.1875 C 67.007812 -67.375 78.394531 -61.546875 94.6875 -59.703125 L 94.6875 0 Z M 21.9375 0 "/></g></g></g></g></g><g transform="matrix(1, 0, 0, 1, 65, 34)"><g clip-path="url(#df0cc57934)"><g fill="#000000" fill-opacity="1"><g transform="translate(4.200489, 259.253125)"><g><path d="M -0.492188 0 L -0.492188 -24.386719 L 82.925781 -125.703125 L 88.644531 -120.992188 L 88.644531 -113.585938 L 5.679688 -113.585938 L 5.679688 -153.09375 L 134.820312 -153.09375 L 134.820312 -120.324219 L 52.648438 -20 L 46.914062 -24.691406 L 46.914062 -32.101562 L 138.03125 -32.101562 L 138.03125 7.40625 L -0.492188 7.40625 Z M 14.320312 0 L 6.914062 0 L 6.914062 -7.40625 L 130.625 -7.40625 L 130.625 0 L 123.214844 0 L 123.214844 -24.691406 L 130.625 -24.691406 L 130.625 -17.285156 L 31.273438 -17.285156 L 121.683594 -127.664062 L 127.414062 -122.96875 L 120.007812 -122.96875 L 120.007812 -145.6875 L 127.414062 -145.6875 L 127.414062 -138.277344 L 13.085938 -138.277344 L 13.085938 -145.6875 L 20.496094 -145.6875 L 20.496094 -120.992188 L 13.085938 -120.992188 L 13.085938 -128.402344 L 104.339844 -128.402344 L 12.632812 -17.019531 L 6.914062 -21.730469 L 14.320312 -21.730469 Z M 14.320312 0 "/></g></g></g><g fill="#ffffff" fill-opacity="1"><g transform="translate(4.200489, 259.253125)"><g><path d="M 6.90625 0 L 6.90625 -21.734375 L 88.640625 -120.984375 L 13.09375 -120.984375 L 13.09375 -145.6875 L 127.40625 -145.6875 L 127.40625 -122.96875 L 46.921875 -24.6875 L 130.625 -24.6875 L 130.625 0 Z M 6.90625 0 "/></g></g></g></g></g><g transform="matrix(1, 0, 0, 1, 268, 168)"><g clip-path="url(#575a69af50)"><g fill="#ffffff" fill-opacity="1"><g transform="translate(0.105132, 87.138544)"><g><path d="M 1.84375 0 L 1.84375 -8.4375 L 35.03125 -50.375 L 3.609375 -50.375 L 3.609375 -59.703125 L 48.53125 -59.703125 L 48.53125 -51.34375 L 15.5 -9.3125 L 49.65625 -9.3125 L 49.65625 0 Z M 1.84375 0 "/></g></g></g><g fill="#ffffff" fill-opacity="1"><g transform="translate(50.950563, 87.138544)"><g><path d="M 20.890625 1.203125 C 16.441406 1.203125 12.957031 0.441406 10.4375 -1.078125 C 7.925781 -2.609375 6.144531 -4.566406 5.09375 -6.953125 C 4.050781 -9.335938 3.53125 -11.785156 3.53125 -14.296875 C 3.53125 -16.921875 4.117188 -19.367188 5.296875 -21.640625 C 6.472656 -23.921875 8.453125 -25.785156 11.234375 -27.234375 C 14.023438 -28.679688 17.78125 -29.40625 22.5 -29.40625 C 25.601562 -29.40625 28.492188 -29.125 31.171875 -28.5625 C 33.847656 -28 35.960938 -27.421875 37.515625 -26.828125 L 37.515625 -29.8125 C 37.515625 -31.84375 37.148438 -33.703125 36.421875 -35.390625 C 35.703125 -37.078125 34.484375 -38.425781 32.765625 -39.4375 C 31.054688 -40.457031 28.703125 -40.96875 25.703125 -40.96875 C 23.078125 -40.96875 20.972656 -40.523438 19.390625 -39.640625 C 17.816406 -38.765625 16.664062 -37.640625 15.9375 -36.265625 C 15.21875 -34.898438 14.804688 -33.441406 14.703125 -31.890625 L 5.0625 -31.890625 C 5.164062 -33.660156 5.550781 -35.519531 6.21875 -37.46875 C 6.894531 -39.425781 7.992188 -41.25 9.515625 -42.9375 C 11.046875 -44.625 13.132812 -45.988281 15.78125 -47.03125 C 18.4375 -48.082031 21.800781 -48.609375 25.875 -48.609375 C 30.257812 -48.609375 33.859375 -48.054688 36.671875 -46.953125 C 39.484375 -45.859375 41.664062 -44.359375 43.21875 -42.453125 C 44.78125 -40.554688 45.867188 -38.390625 46.484375 -35.953125 C 47.097656 -33.515625 47.40625 -30.957031 47.40625 -28.28125 L 47.40625 0 L 37.515625 0 L 37.515625 -5.390625 L 37.921875 -9.71875 L 37.84375 -9.71875 C 36.445312 -6.457031 34.300781 -3.820312 31.40625 -1.8125 C 28.519531 0.195312 25.015625 1.203125 20.890625 1.203125 Z M 13.34375 -14.625 C 13.34375 -13.332031 13.648438 -12.109375 14.265625 -10.953125 C 14.878906 -9.804688 15.910156 -8.859375 17.359375 -8.109375 C 18.804688 -7.359375 20.8125 -6.984375 23.375 -6.984375 C 26.488281 -6.984375 29.035156 -7.648438 31.015625 -8.984375 C 32.992188 -10.328125 34.503906 -11.976562 35.546875 -13.9375 C 36.597656 -15.894531 37.226562 -17.8125 37.4375 -19.6875 C 35.9375 -20.269531 33.953125 -20.84375 31.484375 -21.40625 C 29.023438 -21.96875 26.617188 -22.25 24.265625 -22.25 C 21.316406 -22.25 19.050781 -21.859375 17.46875 -21.078125 C 15.894531 -20.304688 14.8125 -19.332031 14.21875 -18.15625 C 13.632812 -16.976562 13.34375 -15.800781 13.34375 -14.625 Z M 19.765625 -53.75 L 27.234375 -65.234375 L 37.28125 -65.234375 L 26.1875 -53.75 Z M 19.765625 -53.75 "/></g></g></g><g fill="#ffffff" fill-opacity="1"><g transform="translate(104.125473, 87.138544)"><g><path d="M 6.265625 0 L 6.265625 -47.40625 L 16.234375 -47.40625 L 16.234375 -42.75 L 15.75 -37.28125 L 15.828125 -37.28125 C 17.273438 -40.8125 19.429688 -43.582031 22.296875 -45.59375 C 25.160156 -47.601562 28.765625 -48.609375 33.109375 -48.609375 C 38.617188 -48.609375 42.992188 -47.015625 46.234375 -43.828125 C 49.472656 -40.640625 51.09375 -35.429688 51.09375 -28.203125 L 51.09375 0 L 41.0625 0 L 41.0625 -26.921875 C 41.0625 -35.484375 37.335938 -39.765625 29.890625 -39.765625 C 26.671875 -39.765625 24.054688 -38.988281 22.046875 -37.4375 C 20.046875 -35.882812 18.578125 -33.898438 17.640625 -31.484375 C 16.703125 -29.078125 16.234375 -26.585938 16.234375 -24.015625 L 16.234375 0 Z M 6.265625 0 "/></g></g></g><g fill="#ffffff" fill-opacity="1"><g transform="translate(160.915024, 87.138544)"><g><path d="M 26.265625 1.125 C 18.984375 1.125 13.347656 -1.03125 9.359375 -5.34375 C 5.367188 -9.65625 3.375 -15.640625 3.375 -23.296875 L 3.375 -24.265625 C 3.375 -31.921875 5.378906 -37.890625 9.390625 -42.171875 C 13.410156 -46.460938 19.035156 -48.609375 26.265625 -48.609375 C 32.804688 -48.609375 37.976562 -47.015625 41.78125 -43.828125 C 45.582031 -40.640625 47.644531 -36.019531 47.96875 -29.96875 L 37.921875 -29.96875 C 37.597656 -33.289062 36.40625 -35.78125 34.34375 -37.4375 C 32.28125 -39.101562 29.507812 -39.9375 26.03125 -39.9375 C 22.175781 -39.9375 19.097656 -38.632812 16.796875 -36.03125 C 14.492188 -33.4375 13.34375 -29.429688 13.34375 -24.015625 L 13.34375 -23.546875 C 13.34375 -17.972656 14.519531 -13.898438 16.875 -11.328125 C 19.226562 -8.753906 22.304688 -7.46875 26.109375 -7.46875 C 29.859375 -7.46875 32.707031 -8.414062 34.65625 -10.3125 C 36.613281 -12.21875 37.726562 -14.726562 38 -17.84375 L 48.046875 -17.84375 C 47.722656 -11.625 45.644531 -6.90625 41.8125 -3.6875 C 37.988281 -0.476562 32.804688 1.125 26.265625 1.125 Z M 26.265625 1.125 "/></g></g></g><g fill="#ffffff" fill-opacity="1"><g transform="translate(211.760521, 87.138544)"><g><path d="M 20.890625 1.203125 C 16.441406 1.203125 12.957031 0.441406 10.4375 -1.078125 C 7.925781 -2.609375 6.144531 -4.566406 5.09375 -6.953125 C 4.050781 -9.335938 3.53125 -11.785156 3.53125 -14.296875 C 3.53125 -16.921875 4.117188 -19.367188 5.296875 -21.640625 C 6.472656 -23.921875 8.453125 -25.785156 11.234375 -27.234375 C 14.023438 -28.679688 17.78125 -29.40625 22.5 -29.40625 C 25.601562 -29.40625 28.492188 -29.125 31.171875 -28.5625 C 33.847656 -28 35.960938 -27.421875 37.515625 -26.828125 L 37.515625 -29.8125 C 37.515625 -31.84375 37.148438 -33.703125 36.421875 -35.390625 C 35.703125 -37.078125 34.484375 -38.425781 32.765625 -39.4375 C 31.054688 -40.457031 28.703125 -40.96875 25.703125 -40.96875 C 23.078125 -40.96875 20.972656 -40.523438 19.390625 -39.640625 C 17.816406 -38.765625 16.664062 -37.640625 15.9375 -36.265625 C 15.21875 -34.898438 14.804688 -33.441406 14.703125 -31.890625 L 5.0625 -31.890625 C 5.164062 -33.660156 5.550781 -35.519531 6.21875 -37.46875 C 6.894531 -39.425781 7.992188 -41.25 9.515625 -42.9375 C 11.046875 -44.625 13.132812 -45.988281 15.78125 -47.03125 C 18.4375 -48.082031 21.800781 -48.609375 25.875 -48.609375 C 30.257812 -48.609375 33.859375 -48.054688 36.671875 -46.953125 C 39.484375 -45.859375 41.664062 -44.359375 43.21875 -42.453125 C 44.78125 -40.554688 45.867188 -38.390625 46.484375 -35.953125 C 47.097656 -33.515625 47.40625 -30.957031 47.40625 -28.28125 L 47.40625 0 L 37.515625 0 L 37.515625 -5.390625 L 37.921875 -9.71875 L 37.84375 -9.71875 C 36.445312 -6.457031 34.300781 -3.820312 31.40625 -1.8125 C 28.519531 0.195312 25.015625 1.203125 20.890625 1.203125 Z M 13.34375 -14.625 C 13.34375 -13.332031 13.648438 -12.109375 14.265625 -10.953125 C 14.878906 -9.804688 15.910156 -8.859375 17.359375 -8.109375 C 18.804688 -7.359375 20.8125 -6.984375 23.375 -6.984375 C 26.488281 -6.984375 29.035156 -7.648438 31.015625 -8.984375 C 32.992188 -10.328125 34.503906 -11.976562 35.546875 -13.9375 C 36.597656 -15.894531 37.226562 -17.8125 37.4375 -19.6875 C 35.9375 -20.269531 33.953125 -20.84375 31.484375 -21.40625 C 29.023438 -21.96875 26.617188 -22.25 24.265625 -22.25 C 21.316406 -22.25 19.050781 -21.859375 17.46875 -21.078125 C 15.894531 -20.304688 14.8125 -19.332031 14.21875 -18.15625 C 13.632812 -16.976562 13.34375 -15.800781 13.34375 -14.625 Z M 13.34375 -14.625 "/></g></g></g><g fill="#ffffff" fill-opacity="1"><g transform="translate(264.935431, 87.138544)"><g><path d="M 6.265625 0 L 6.265625 -47.40625 L 16.234375 -47.40625 L 16.234375 -42.421875 L 15.75 -37.125 L 15.90625 -37.125 C 17.195312 -40.65625 19.257812 -43.453125 22.09375 -45.515625 C 24.9375 -47.578125 28.234375 -48.609375 31.984375 -48.609375 C 33.960938 -48.609375 35.726562 -48.394531 37.28125 -47.96875 L 37.28125 -38.484375 C 35.675781 -39.015625 33.773438 -39.28125 31.578125 -39.28125 C 28.359375 -39.28125 25.609375 -38.570312 23.328125 -37.15625 C 21.054688 -35.738281 19.304688 -33.796875 18.078125 -31.328125 C 16.847656 -28.867188 16.234375 -26.03125 16.234375 -22.8125 L 16.234375 0 Z M 6.265625 0 "/></g></g></g><g fill="#ffffff" fill-opacity="1"><g transform="translate(301.16147, 87.138544)"><g><path d="M 20.890625 1.203125 C 16.441406 1.203125 12.957031 0.441406 10.4375 -1.078125 C 7.925781 -2.609375 6.144531 -4.566406 5.09375 -6.953125 C 4.050781 -9.335938 3.53125 -11.785156 3.53125 -14.296875 C 3.53125 -16.921875 4.117188 -19.367188 5.296875 -21.640625 C 6.472656 -23.921875 8.453125 -25.785156 11.234375 -27.234375 C 14.023438 -28.679688 17.78125 -29.40625 22.5 -29.40625 C 25.601562 -29.40625 28.492188 -29.125 31.171875 -28.5625 C 33.847656 -28 35.960938 -27.421875 37.515625 -26.828125 L 37.515625 -29.8125 C 37.515625 -31.84375 37.148438 -33.703125 36.421875 -35.390625 C 35.703125 -37.078125 34.484375 -38.425781 32.765625 -39.4375 C 31.054688 -40.457031 28.703125 -40.96875 25.703125 -40.96875 C 23.078125 -40.96875 20.972656 -40.523438 19.390625 -39.640625 C 17.816406 -38.765625 16.664062 -37.640625 15.9375 -36.265625 C 15.21875 -34.898438 14.804688 -33.441406 14.703125 -31.890625 L 5.0625 -31.890625 C 5.164062 -33.660156 5.550781 -35.519531 6.21875 -37.46875 C 6.894531 -39.425781 7.992188 -41.25 9.515625 -42.9375 C 11.046875 -44.625 13.132812 -45.988281 15.78125 -47.03125 C 18.4375 -48.082031 21.800781 -48.609375 25.875 -48.609375 C 30.257812 -48.609375 33.859375 -48.054688 36.671875 -46.953125 C 39.484375 -45.859375 41.664062 -44.359375 43.21875 -42.453125 C 44.78125 -40.554688 45.867188 -38.390625 46.484375 -35.953125 C 47.097656 -33.515625 47.40625 -30.957031 47.40625 -28.28125 L 47.40625 0 L 37.515625 0 L 37.515625 -5.390625 L 37.921875 -9.71875 L 37.84375 -9.71875 C 36.445312 -6.457031 34.300781 -3.820312 31.40625 -1.8125 C 28.519531 0.195312 25.015625 1.203125 20.890625 1.203125 Z M 13.34375 -14.625 C 13.34375 -13.332031 13.648438 -12.109375 14.265625 -10.953125 C 14.878906 -9.804688 15.910156 -8.859375 17.359375 -8.109375 C 18.804688 -7.359375 20.8125 -6.984375 23.375 -6.984375 C 26.488281 -6.984375 29.035156 -7.648438 31.015625 -8.984375 C 32.992188 -10.328125 34.503906 -11.976562 35.546875 -13.9375 C 36.597656 -15.894531 37.226562 -17.8125 37.4375 -19.6875 C 35.9375 -20.269531 33.953125 -20.84375 31.484375 -21.40625 C 29.023438 -21.96875 26.617188 -22.25 24.265625 -22.25 C 21.316406 -22.25 19.050781 -21.859375 17.46875 -21.078125 C 15.894531 -20.304688 14.8125 -19.332031 14.21875 -18.15625 C 13.632812 -16.976562 13.34375 -15.800781 13.34375 -14.625 Z M 13.34375 -14.625 "/></g></g></g><g fill="#ffffff" fill-opacity="1"><g transform="translate(354.33638, 87.138544)"><g/></g></g><g fill="#ffffff" fill-opacity="1"><g transform="translate(379.558325, 87.138544)"><g><path d="M 31.328125 1.203125 C 22.441406 1.203125 15.628906 -1.378906 10.890625 -6.546875 C 6.148438 -11.710938 3.78125 -19.304688 3.78125 -29.328125 L 3.78125 -30.453125 C 3.78125 -40.410156 6.148438 -47.957031 10.890625 -53.09375 C 15.628906 -58.238281 22.441406 -60.8125 31.328125 -60.8125 C 40.273438 -60.8125 47.101562 -58.238281 51.8125 -53.09375 C 56.53125 -47.957031 58.890625 -40.410156 58.890625 -30.453125 L 58.890625 -29.328125 C 58.890625 -19.304688 56.53125 -11.710938 51.8125 -6.546875 C 47.101562 -1.378906 40.273438 1.203125 31.328125 1.203125 Z M 14.703125 -29 C 14.703125 -22.09375 16.132812 -16.867188 19 -13.328125 C 21.863281 -9.796875 25.972656 -8.03125 31.328125 -8.03125 C 36.742188 -8.03125 40.882812 -9.796875 43.75 -13.328125 C 46.613281 -16.867188 48.046875 -22.09375 48.046875 -29 L 48.046875 -30.765625 C 48.046875 -37.628906 46.613281 -42.8125 43.75 -46.3125 C 40.882812 -49.820312 36.742188 -51.578125 31.328125 -51.578125 C 25.972656 -51.578125 21.863281 -49.820312 19 -46.3125 C 16.132812 -42.8125 14.703125 -37.628906 14.703125 -30.765625 Z M 14.703125 -29 "/></g></g></g><g fill="#ffffff" fill-opacity="1"><g transform="translate(442.211585, 87.138544)"><g><path d="M 6.265625 0 L 6.265625 -61.46875 L 16.234375 -61.46875 L 16.234375 -42.65625 L 15.671875 -37.359375 L 15.90625 -37.359375 C 17.457031 -41.054688 19.71875 -43.851562 22.6875 -45.75 C 25.664062 -47.65625 29.164062 -48.609375 33.1875 -48.609375 C 38.914062 -48.609375 43.332031 -47.023438 46.4375 -43.859375 C 49.539062 -40.703125 51.09375 -35.535156 51.09375 -28.359375 L 51.09375 0 L 41.0625 0 L 41.0625 -27 C 41.0625 -31.28125 40.125 -34.476562 38.25 -36.59375 C 36.375 -38.707031 33.640625 -39.765625 30.046875 -39.765625 C 26.773438 -39.765625 24.125 -38.988281 22.09375 -37.4375 C 20.0625 -35.882812 18.578125 -33.898438 17.640625 -31.484375 C 16.703125 -29.078125 16.234375 -26.617188 16.234375 -24.109375 L 16.234375 0 Z M 6.265625 0 "/></g></g></g><g fill="#ffffff" fill-opacity="1"><g transform="translate(499.081484, 87.138544)"><g><path d="M 6.265625 0 L 6.265625 -47.40625 L 16.234375 -47.40625 L 16.234375 -42.75 L 15.75 -37.28125 L 15.90625 -37.28125 C 17.300781 -40.707031 19.46875 -43.453125 22.40625 -45.515625 C 25.351562 -47.578125 28.785156 -48.609375 32.703125 -48.609375 C 35.960938 -48.609375 38.640625 -48.054688 40.734375 -46.953125 C 42.828125 -45.859375 44.472656 -44.453125 45.671875 -42.734375 C 46.878906 -41.023438 47.75 -39.234375 48.28125 -37.359375 L 48.453125 -37.359375 C 49.835938 -40.734375 52.070312 -43.453125 55.15625 -45.515625 C 58.238281 -47.578125 61.734375 -48.609375 65.640625 -48.609375 C 68.691406 -48.609375 71.222656 -48.125 73.234375 -47.15625 C 75.242188 -46.195312 76.835938 -44.941406 78.015625 -43.390625 C 79.191406 -41.835938 80.070312 -40.132812 80.65625 -38.28125 C 81.25 -36.4375 81.625 -34.613281 81.78125 -32.8125 C 81.945312 -31.019531 82.03125 -29.429688 82.03125 -28.046875 L 82.03125 0 L 71.984375 0 L 71.984375 -26.359375 C 71.984375 -27.859375 71.863281 -29.394531 71.625 -30.96875 C 71.382812 -32.550781 70.914062 -34 70.21875 -35.3125 C 69.519531 -36.625 68.5 -37.691406 67.15625 -38.515625 C 65.820312 -39.347656 64.054688 -39.765625 61.859375 -39.765625 C 59.128906 -39.765625 56.8125 -39.015625 54.90625 -37.515625 C 53.007812 -36.015625 51.566406 -34.113281 50.578125 -31.8125 C 49.585938 -29.507812 49.09375 -27.128906 49.09375 -24.671875 L 49.09375 0 L 39.125 0 L 39.125 -26.921875 C 39.125 -28.253906 38.988281 -29.671875 38.71875 -31.171875 C 38.457031 -32.671875 37.960938 -34.0625 37.234375 -35.34375 C 36.515625 -36.632812 35.484375 -37.691406 34.140625 -38.515625 C 32.804688 -39.347656 31.039062 -39.765625 28.84375 -39.765625 C 26.164062 -39.765625 23.875 -39 21.96875 -37.46875 C 20.070312 -35.945312 18.640625 -34.019531 17.671875 -31.6875 C 16.710938 -29.363281 16.234375 -26.992188 16.234375 -24.578125 L 16.234375 0 Z M 6.265625 0 "/></g></g></g></g></g></svg>