<svg xmlns="http://www.w3.org/2000/svg" xmlns:xlink="http://www.w3.org/1999/xlink" width="1200" zoomAndPan="magnify" viewBox="0 0 900 449.999984" height="600" preserveAspectRatio="xMidYMid meet" version="1.0"><defs><g/><clipPath id="c8aa1a76ad"><rect x="0" width="590" y="0" height="108"/></clipPath><clipPath id="bb07ff7f14"><rect x="0" width="220" y="0" height="252"/></clipPath><clipPath id="1479f74569"><rect x="0" width="110" y="0" height="112"/></clipPath></defs><g transform="matrix(1, 0, 0, 1, 268, 148)"><g clip-path="url(#c8aa1a76ad)"><g fill="#000000" fill-opacity="1"><g transform="translate(0.105132, 86.221485)"><g><path d="M 1.84375 0 L 1.84375 -8.4375 L 35.03125 -50.375 L 3.609375 -50.375 L 3.609375 -59.703125 L 48.53125 -59.703125 L 48.53125 -51.34375 L 15.5 -9.3125 L 49.65625 -9.3125 L 49.65625 0 Z M 1.84375 0 "/></g></g></g><g fill="#000000" fill-opacity="1"><g transform="translate(50.950563, 86.221485)"><g><path d="M 20.890625 1.203125 C 16.441406 1.203125 12.957031 0.441406 10.4375 -1.078125 C 7.925781 -2.609375 6.144531 -4.566406 5.09375 -6.953125 C 4.050781 -9.335938 3.53125 -11.785156 3.53125 -14.296875 C 3.53125 -16.921875 4.117188 -19.367188 5.296875 -21.640625 C 6.472656 -23.921875 8.453125 -25.785156 11.234375 -27.234375 C 14.023438 -28.679688 17.78125 -29.40625 22.5 -29.40625 C 25.601562 -29.40625 28.492188 -29.125 31.171875 -28.5625 C 33.847656 -28 35.960938 -27.421875 37.515625 -26.828125 L 37.515625 -29.8125 C 37.515625 -31.84375 37.148438 -33.703125 36.421875 -35.390625 C 35.703125 -37.078125 34.484375 -38.425781 32.765625 -39.4375 C 31.054688 -40.457031 28.703125 -40.96875 25.703125 -40.96875 C 23.078125 -40.96875 20.972656 -40.523438 19.390625 -39.640625 C 17.816406 -38.765625 16.664062 -37.640625 15.9375 -36.265625 C 15.21875 -34.898438 14.804688 -33.441406 14.703125 -31.890625 L 5.0625 -31.890625 C 5.164062 -33.660156 5.550781 -35.519531 6.21875 -37.46875 C 6.894531 -39.425781 7.992188 -41.25 9.515625 -42.9375 C 11.046875 -44.625 13.132812 -45.988281 15.78125 -47.03125 C 18.4375 -48.082031 21.800781 -48.609375 25.875 -48.609375 C 30.257812 -48.609375 33.859375 -48.054688 36.671875 -46.953125 C 39.484375 -45.859375 41.664062 -44.359375 43.21875 -42.453125 C 44.78125 -40.554688 45.867188 -38.390625 46.484375 -35.953125 C 47.097656 -33.515625 47.40625 -30.957031 47.40625 -28.28125 L 47.40625 0 L 37.515625 0 L 37.515625 -5.390625 L 37.921875 -9.71875 L 37.84375 -9.71875 C 36.445312 -6.457031 34.300781 -3.820312 31.40625 -1.8125 C 28.519531 0.195312 25.015625 1.203125 20.890625 1.203125 Z M 13.34375 -14.625 C 13.34375 -13.332031 13.648438 -12.109375 14.265625 -10.953125 C 14.878906 -9.804688 15.910156 -8.859375 17.359375 -8.109375 C 18.804688 -7.359375 20.8125 -6.984375 23.375 -6.984375 C 26.488281 -6.984375 29.035156 -7.648438 31.015625 -8.984375 C 32.992188 -10.328125 34.503906 -11.976562 35.546875 -13.9375 C 36.597656 -15.894531 37.226562 -17.8125 37.4375 -19.6875 C 35.9375 -20.269531 33.953125 -20.84375 31.484375 -21.40625 C 29.023438 -21.96875 26.617188 -22.25 24.265625 -22.25 C 21.316406 -22.25 19.050781 -21.859375 17.46875 -21.078125 C 15.894531 -20.304688 14.8125 -19.332031 14.21875 -18.15625 C 13.632812 -16.976562 13.34375 -15.800781 13.34375 -14.625 Z M 19.765625 -53.75 L 27.234375 -65.234375 L 37.28125 -65.234375 L 26.1875 -53.75 Z M 19.765625 -53.75 "/></g></g></g><g fill="#000000" fill-opacity="1"><g transform="translate(104.125473, 86.221485)"><g><path d="M 6.265625 0 L 6.265625 -47.40625 L 16.234375 -47.40625 L 16.234375 -42.75 L 15.75 -37.28125 L 15.828125 -37.28125 C 17.273438 -40.8125 19.429688 -43.582031 22.296875 -45.59375 C 25.160156 -47.601562 28.765625 -48.609375 33.109375 -48.609375 C 38.617188 -48.609375 42.992188 -47.015625 46.234375 -43.828125 C 49.472656 -40.640625 51.09375 -35.429688 51.09375 -28.203125 L 51.09375 0 L 41.0625 0 L 41.0625 -26.921875 C 41.0625 -35.484375 37.335938 -39.765625 29.890625 -39.765625 C 26.671875 -39.765625 24.054688 -38.988281 22.046875 -37.4375 C 20.046875 -35.882812 18.578125 -33.898438 17.640625 -31.484375 C 16.703125 -29.078125 16.234375 -26.585938 16.234375 -24.015625 L 16.234375 0 Z M 6.265625 0 "/></g></g></g><g fill="#000000" fill-opacity="1"><g transform="translate(160.915024, 86.221485)"><g><path d="M 26.265625 1.125 C 18.984375 1.125 13.347656 -1.03125 9.359375 -5.34375 C 5.367188 -9.65625 3.375 -15.640625 3.375 -23.296875 L 3.375 -24.265625 C 3.375 -31.921875 5.378906 -37.890625 9.390625 -42.171875 C 13.410156 -46.460938 19.035156 -48.609375 26.265625 -48.609375 C 32.804688 -48.609375 37.976562 -47.015625 41.78125 -43.828125 C 45.582031 -40.640625 47.644531 -36.019531 47.96875 -29.96875 L 37.921875 -29.96875 C 37.597656 -33.289062 36.40625 -35.78125 34.34375 -37.4375 C 32.28125 -39.101562 29.507812 -39.9375 26.03125 -39.9375 C 22.175781 -39.9375 19.097656 -38.632812 16.796875 -36.03125 C 14.492188 -33.4375 13.34375 -29.429688 13.34375 -24.015625 L 13.34375 -23.546875 C 13.34375 -17.972656 14.519531 -13.898438 16.875 -11.328125 C 19.226562 -8.753906 22.304688 -7.46875 26.109375 -7.46875 C 29.859375 -7.46875 32.707031 -8.414062 34.65625 -10.3125 C 36.613281 -12.21875 37.726562 -14.726562 38 -17.84375 L 48.046875 -17.84375 C 47.722656 -11.625 45.644531 -6.90625 41.8125 -3.6875 C 37.988281 -0.476562 32.804688 1.125 26.265625 1.125 Z M 26.265625 1.125 "/></g></g></g><g fill="#000000" fill-opacity="1"><g transform="translate(211.760521, 86.221485)"><g><path d="M 20.890625 1.203125 C 16.441406 1.203125 12.957031 0.441406 10.4375 -1.078125 C 7.925781 -2.609375 6.144531 -4.566406 5.09375 -6.953125 C 4.050781 -9.335938 3.53125 -11.785156 3.53125 -14.296875 C 3.53125 -16.921875 4.117188 -19.367188 5.296875 -21.640625 C 6.472656 -23.921875 8.453125 -25.785156 11.234375 -27.234375 C 14.023438 -28.679688 17.78125 -29.40625 22.5 -29.40625 C 25.601562 -29.40625 28.492188 -29.125 31.171875 -28.5625 C 33.847656 -28 35.960938 -27.421875 37.515625 -26.828125 L 37.515625 -29.8125 C 37.515625 -31.84375 37.148438 -33.703125 36.421875 -35.390625 C 35.703125 -37.078125 34.484375 -38.425781 32.765625 -39.4375 C 31.054688 -40.457031 28.703125 -40.96875 25.703125 -40.96875 C 23.078125 -40.96875 20.972656 -40.523438 19.390625 -39.640625 C 17.816406 -38.765625 16.664062 -37.640625 15.9375 -36.265625 C 15.21875 -34.898438 14.804688 -33.441406 14.703125 -31.890625 L 5.0625 -31.890625 C 5.164062 -33.660156 5.550781 -35.519531 6.21875 -37.46875 C 6.894531 -39.425781 7.992188 -41.25 9.515625 -42.9375 C 11.046875 -44.625 13.132812 -45.988281 15.78125 -47.03125 C 18.4375 -48.082031 21.800781 -48.609375 25.875 -48.609375 C 30.257812 -48.609375 33.859375 -48.054688 36.671875 -46.953125 C 39.484375 -45.859375 41.664062 -44.359375 43.21875 -42.453125 C 44.78125 -40.554688 45.867188 -38.390625 46.484375 -35.953125 C 47.097656 -33.515625 47.40625 -30.957031 47.40625 -28.28125 L 47.40625 0 L 37.515625 0 L 37.515625 -5.390625 L 37.921875 -9.71875 L 37.84375 -9.71875 C 36.445312 -6.457031 34.300781 -3.820312 31.40625 -1.8125 C 28.519531 0.195312 25.015625 1.203125 20.890625 1.203125 Z M 13.34375 -14.625 C 13.34375 -13.332031 13.648438 -12.109375 14.265625 -10.953125 C 14.878906 -9.804688 15.910156 -8.859375 17.359375 -8.109375 C 18.804688 -7.359375 20.8125 -6.984375 23.375 -6.984375 C 26.488281 -6.984375 29.035156 -7.648438 31.015625 -8.984375 C 32.992188 -10.328125 34.503906 -11.976562 35.546875 -13.9375 C 36.597656 -15.894531 37.226562 -17.8125 37.4375 -19.6875 C 35.9375 -20.269531 33.953125 -20.84375 31.484375 -21.40625 C 29.023438 -21.96875 26.617188 -22.25 24.265625 -22.25 C 21.316406 -22.25 19.050781 -21.859375 17.46875 -21.078125 C 15.894531 -20.304688 14.8125 -19.332031 14.21875 -18.15625 C 13.632812 -16.976562 13.34375 -15.800781 13.34375 -14.625 Z M 13.34375 -14.625 "/></g></g></g><g fill="#000000" fill-opacity="1"><g transform="translate(264.935431, 86.221485)"><g><path d="M 6.265625 0 L 6.265625 -47.40625 L 16.234375 -47.40625 L 16.234375 -42.421875 L 15.75 -37.125 L 15.90625 -37.125 C 17.195312 -40.65625 19.257812 -43.453125 22.09375 -45.515625 C 24.9375 -47.578125 28.234375 -48.609375 31.984375 -48.609375 C 33.960938 -48.609375 35.726562 -48.394531 37.28125 -47.96875 L 37.28125 -38.484375 C 35.675781 -39.015625 33.773438 -39.28125 31.578125 -39.28125 C 28.359375 -39.28125 25.609375 -38.570312 23.328125 -37.15625 C 21.054688 -35.738281 19.304688 -33.796875 18.078125 -31.328125 C 16.847656 -28.867188 16.234375 -26.03125 16.234375 -22.8125 L 16.234375 0 Z M 6.265625 0 "/></g></g></g><g fill="#000000" fill-opacity="1"><g transform="translate(301.16147, 86.221485)"><g><path d="M 20.890625 1.203125 C 16.441406 1.203125 12.957031 0.441406 10.4375 -1.078125 C 7.925781 -2.609375 6.144531 -4.566406 5.09375 -6.953125 C 4.050781 -9.335938 3.53125 -11.785156 3.53125 -14.296875 C 3.53125 -16.921875 4.117188 -19.367188 5.296875 -21.640625 C 6.472656 -23.921875 8.453125 -25.785156 11.234375 -27.234375 C 14.023438 -28.679688 17.78125 -29.40625 22.5 -29.40625 C 25.601562 -29.40625 28.492188 -29.125 31.171875 -28.5625 C 33.847656 -28 35.960938 -27.421875 37.515625 -26.828125 L 37.515625 -29.8125 C 37.515625 -31.84375 37.148438 -33.703125 36.421875 -35.390625 C 35.703125 -37.078125 34.484375 -38.425781 32.765625 -39.4375 C 31.054688 -40.457031 28.703125 -40.96875 25.703125 -40.96875 C 23.078125 -40.96875 20.972656 -40.523438 19.390625 -39.640625 C 17.816406 -38.765625 16.664062 -37.640625 15.9375 -36.265625 C 15.21875 -34.898438 14.804688 -33.441406 14.703125 -31.890625 L 5.0625 -31.890625 C 5.164062 -33.660156 5.550781 -35.519531 6.21875 -37.46875 C 6.894531 -39.425781 7.992188 -41.25 9.515625 -42.9375 C 11.046875 -44.625 13.132812 -45.988281 15.78125 -47.03125 C 18.4375 -48.082031 21.800781 -48.609375 25.875 -48.609375 C 30.257812 -48.609375 33.859375 -48.054688 36.671875 -46.953125 C 39.484375 -45.859375 41.664062 -44.359375 43.21875 -42.453125 C 44.78125 -40.554688 45.867188 -38.390625 46.484375 -35.953125 C 47.097656 -33.515625 47.40625 -30.957031 47.40625 -28.28125 L 47.40625 0 L 37.515625 0 L 37.515625 -5.390625 L 37.921875 -9.71875 L 37.84375 -9.71875 C 36.445312 -6.457031 34.300781 -3.820312 31.40625 -1.8125 C 28.519531 0.195312 25.015625 1.203125 20.890625 1.203125 Z M 13.34375 -14.625 C 13.34375 -13.332031 13.648438 -12.109375 14.265625 -10.953125 C 14.878906 -9.804688 15.910156 -8.859375 17.359375 -8.109375 C 18.804688 -7.359375 20.8125 -6.984375 23.375 -6.984375 C 26.488281 -6.984375 29.035156 -7.648438 31.015625 -8.984375 C 32.992188 -10.328125 34.503906 -11.976562 35.546875 -13.9375 C 36.597656 -15.894531 37.226562 -17.8125 37.4375 -19.6875 C 35.9375 -20.269531 33.953125 -20.84375 31.484375 -21.40625 C 29.023438 -21.96875 26.617188 -22.25 24.265625 -22.25 C 21.316406 -22.25 19.050781 -21.859375 17.46875 -21.078125 C 15.894531 -20.304688 14.8125 -19.332031 14.21875 -18.15625 C 13.632812 -16.976562 13.34375 -15.800781 13.34375 -14.625 Z M 13.34375 -14.625 "/></g></g></g><g fill="#000000" fill-opacity="1"><g transform="translate(354.33638, 86.221485)"><g/></g></g><g fill="#000000" fill-opacity="1"><g transform="translate(379.558325, 86.221485)"><g><path d="M 31.328125 1.203125 C 22.441406 1.203125 15.628906 -1.378906 10.890625 -6.546875 C 6.148438 -11.710938 3.78125 -19.304688 3.78125 -29.328125 L 3.78125 -30.453125 C 3.78125 -40.410156 6.148438 -47.957031 10.890625 -53.09375 C 15.628906 -58.238281 22.441406 -60.8125 31.328125 -60.8125 C 40.273438 -60.8125 47.101562 -58.238281 51.8125 -53.09375 C 56.53125 -47.957031 58.890625 -40.410156 58.890625 -30.453125 L 58.890625 -29.328125 C 58.890625 -19.304688 56.53125 -11.710938 51.8125 -6.546875 C 47.101562 -1.378906 40.273438 1.203125 31.328125 1.203125 Z M 14.703125 -29 C 14.703125 -22.09375 16.132812 -16.867188 19 -13.328125 C 21.863281 -9.796875 25.972656 -8.03125 31.328125 -8.03125 C 36.742188 -8.03125 40.882812 -9.796875 43.75 -13.328125 C 46.613281 -16.867188 48.046875 -22.09375 48.046875 -29 L 48.046875 -30.765625 C 48.046875 -37.628906 46.613281 -42.8125 43.75 -46.3125 C 40.882812 -49.820312 36.742188 -51.578125 31.328125 -51.578125 C 25.972656 -51.578125 21.863281 -49.820312 19 -46.3125 C 16.132812 -42.8125 14.703125 -37.628906 14.703125 -30.765625 Z M 14.703125 -29 "/></g></g></g><g fill="#000000" fill-opacity="1"><g transform="translate(442.211585, 86.221485)"><g><path d="M 6.265625 0 L 6.265625 -61.46875 L 16.234375 -61.46875 L 16.234375 -42.65625 L 15.671875 -37.359375 L 15.90625 -37.359375 C 17.457031 -41.054688 19.71875 -43.851562 22.6875 -45.75 C 25.664062 -47.65625 29.164062 -48.609375 33.1875 -48.609375 C 38.914062 -48.609375 43.332031 -47.023438 46.4375 -43.859375 C 49.539062 -40.703125 51.09375 -35.535156 51.09375 -28.359375 L 51.09375 0 L 41.0625 0 L 41.0625 -27 C 41.0625 -31.28125 40.125 -34.476562 38.25 -36.59375 C 36.375 -38.707031 33.640625 -39.765625 30.046875 -39.765625 C 26.773438 -39.765625 24.125 -38.988281 22.09375 -37.4375 C 20.0625 -35.882812 18.578125 -33.898438 17.640625 -31.484375 C 16.703125 -29.078125 16.234375 -26.617188 16.234375 -24.109375 L 16.234375 0 Z M 6.265625 0 "/></g></g></g><g fill="#000000" fill-opacity="1"><g transform="translate(499.081484, 86.221485)"><g><path d="M 6.265625 0 L 6.265625 -47.40625 L 16.234375 -47.40625 L 16.234375 -42.75 L 15.75 -37.28125 L 15.90625 -37.28125 C 17.300781 -40.707031 19.46875 -43.453125 22.40625 -45.515625 C 25.351562 -47.578125 28.785156 -48.609375 32.703125 -48.609375 C 35.960938 -48.609375 38.640625 -48.054688 40.734375 -46.953125 C 42.828125 -45.859375 44.472656 -44.453125 45.671875 -42.734375 C 46.878906 -41.023438 47.75 -39.234375 48.28125 -37.359375 L 48.453125 -37.359375 C 49.835938 -40.734375 52.070312 -43.453125 55.15625 -45.515625 C 58.238281 -47.578125 61.734375 -48.609375 65.640625 -48.609375 C 68.691406 -48.609375 71.222656 -48.125 73.234375 -47.15625 C 75.242188 -46.195312 76.835938 -44.941406 78.015625 -43.390625 C 79.191406 -41.835938 80.070312 -40.132812 80.65625 -38.28125 C 81.25 -36.4375 81.625 -34.613281 81.78125 -32.8125 C 81.945312 -31.019531 82.03125 -29.429688 82.03125 -28.046875 L 82.03125 0 L 71.984375 0 L 71.984375 -26.359375 C 71.984375 -27.859375 71.863281 -29.394531 71.625 -30.96875 C 71.382812 -32.550781 70.914062 -34 70.21875 -35.3125 C 69.519531 -36.625 68.5 -37.691406 67.15625 -38.515625 C 65.820312 -39.347656 64.054688 -39.765625 61.859375 -39.765625 C 59.128906 -39.765625 56.8125 -39.015625 54.90625 -37.515625 C 53.007812 -36.015625 51.566406 -34.113281 50.578125 -31.8125 C 49.585938 -29.507812 49.09375 -27.128906 49.09375 -24.671875 L 49.09375 0 L 39.125 0 L 39.125 -26.921875 C 39.125 -28.253906 38.988281 -29.671875 38.71875 -31.171875 C 38.457031 -32.671875 37.960938 -34.0625 37.234375 -35.34375 C 36.515625 -36.632812 35.484375 -37.691406 34.140625 -38.515625 C 32.804688 -39.347656 31.039062 -39.765625 28.84375 -39.765625 C 26.164062 -39.765625 23.875 -39 21.96875 -37.46875 C 20.070312 -35.945312 18.640625 -34.019531 17.671875 -31.6875 C 16.710938 -29.363281 16.234375 -26.992188 16.234375 -24.578125 L 16.234375 0 Z M 6.265625 0 "/></g></g></g></g></g><g transform="matrix(1, 0, 0, 1, 40, 110)"><g clip-path="url(#bb07ff7f14)"><g fill="#000000" fill-opacity="1"><g transform="translate(0.425013, 206.636286)"><g><path d="M 109.40625 -180.75 C 87.019531 -180.75 70.601562 -174.640625 60.15625 -162.421875 C 49.707031 -150.203125 44.484375 -133.460938 44.484375 -112.203125 C 44.484375 -93.546875 47.929688 -76.660156 54.828125 -61.546875 C 61.734375 -46.441406 73.863281 -32.640625 91.21875 -20.140625 L 91.21875 0 L 10.625 0 L 10.625 -22.109375 L 60.4375 -22.109375 C 48.5 -31.242188 38.425781 -43.457031 30.21875 -58.75 C 22.007812 -74.050781 17.90625 -92.144531 17.90625 -113.03125 C 17.90625 -131.3125 21.445312 -147.164062 28.53125 -160.59375 C 35.625 -174.03125 45.976562 -184.429688 59.59375 -191.796875 C 73.207031 -199.171875 89.8125 -202.859375 109.40625 -202.859375 C 129.175781 -202.859375 145.867188 -199.21875 159.484375 -191.9375 C 173.097656 -184.664062 183.445312 -174.3125 190.53125 -160.875 C 197.625 -147.445312 201.171875 -131.59375 201.171875 -113.3125 C 201.171875 -92.238281 197.113281 -74.050781 189 -58.75 C 180.882812 -43.457031 170.859375 -31.242188 158.921875 -22.109375 L 208.453125 -22.109375 L 208.453125 0 L 127.859375 0 L 127.859375 -20.140625 C 145.210938 -32.453125 157.382812 -46.253906 164.375 -61.546875 C 171.375 -76.847656 174.875 -93.734375 174.875 -112.203125 C 174.875 -133.460938 169.601562 -150.203125 159.0625 -162.421875 C 148.519531 -174.640625 131.96875 -180.75 109.40625 -180.75 Z M 109.40625 -180.75 "/></g></g></g></g></g><g transform="matrix(1, 0, 0, 1, 95, 159)"><g clip-path="url(#1479f74569)"><g fill="#000000" fill-opacity="1"><g transform="translate(0.749797, 88.930547)"><g><path d="M 103.828125 -75.109375 C 103.828125 -75.109375 103.066406 -74.992188 101.546875 -74.765625 C 100.023438 -74.535156 98.085938 -73.753906 95.734375 -72.421875 C 93.378906 -71.097656 90.910156 -68.800781 88.328125 -65.53125 L 41.03125 -4.671875 L 73.515625 -4.671875 C 75.941406 -4.671875 78.296875 -5.351562 80.578125 -6.71875 C 82.859375 -8.09375 85.003906 -9.859375 87.015625 -12.015625 C 89.023438 -14.179688 90.847656 -16.476562 92.484375 -18.90625 C 94.117188 -21.34375 95.523438 -23.625 96.703125 -25.75 C 97.878906 -27.882812 98.789062 -29.65625 99.4375 -31.0625 C 100.082031 -32.46875 100.40625 -33.171875 100.40625 -33.171875 L 105.1875 -33.171875 L 93.453125 0 L 2.96875 0 L 2.96875 -4.671875 L 4.4375 -4.671875 C 4.4375 -4.671875 5.175781 -4.785156 6.65625 -5.015625 C 8.144531 -5.242188 10.066406 -6.039062 12.421875 -7.40625 C 14.773438 -8.769531 17.28125 -11.085938 19.9375 -14.359375 L 63.703125 -75.109375 L 34.765625 -75.109375 C 32.253906 -75.109375 29.859375 -74.421875 27.578125 -73.046875 C 25.296875 -71.679688 23.164062 -69.914062 21.1875 -67.75 C 19.21875 -65.582031 17.414062 -63.300781 15.78125 -60.90625 C 14.144531 -58.519531 12.71875 -56.242188 11.5 -54.078125 C 10.289062 -51.910156 9.378906 -50.144531 8.765625 -48.78125 C 8.160156 -47.414062 7.859375 -46.734375 7.859375 -46.734375 L 2.96875 -46.734375 L 14.703125 -79.78125 L 105.1875 -79.78125 L 105.1875 -75.109375 Z M 103.828125 -75.109375 "/></g></g></g></g></g></svg>